<svg width="12" height="13" viewBox="0 0 12 13" fill="none" xmlns="http://www.w3.org/2000/svg">
<path d="M12 3.92857V10.3571C12 11.4933 11.1159 12.4229 9.99804 12.4954L9.85714 12.5H2.14286C1.00672 12.5 0.0771091 11.6158 0.00455802 10.498L0 10.3571V3.92857H12ZM3.42857 8.21429C2.95518 8.21429 2.57143 8.59804 2.57143 9.07143C2.57143 9.54482 2.95518 9.92857 3.42857 9.92857C3.90196 9.92857 4.28571 9.54482 4.28571 9.07143C4.28571 8.59804 3.90196 8.21429 3.42857 8.21429ZM6 8.21429C5.52661 8.21429 5.14286 8.59804 5.14286 9.07143C5.14286 9.54482 5.52661 9.92857 6 9.92857C6.47339 9.92857 6.85714 9.54482 6.85714 9.07143C6.85714 8.59804 6.47339 8.21429 6 8.21429ZM3.42857 5.64286C2.95518 5.64286 2.57143 6.02661 2.57143 6.5C2.57143 6.97339 2.95518 7.35714 3.42857 7.35714C3.90196 7.35714 4.28571 6.97339 4.28571 6.5C4.28571 6.02661 3.90196 5.64286 3.42857 5.64286ZM6 5.64286C5.52661 5.64286 5.14286 6.02661 5.14286 6.5C5.14286 6.97339 5.52661 7.35714 6 7.35714C6.47339 7.35714 6.85714 6.97339 6.85714 6.5C6.85714 6.02661 6.47339 5.64286 6 5.64286ZM8.57143 5.64286C8.09804 5.64286 7.71429 6.02661 7.71429 6.5C7.71429 6.97339 8.09804 7.35714 8.57143 7.35714C9.04482 7.35714 9.42857 6.97339 9.42857 6.5C9.42857 6.02661 9.04482 5.64286 8.57143 5.64286ZM9.85714 0.5C10.9933 0.5 11.9229 1.38417 11.9954 2.50196L12 2.64286V3.07143H0V2.64286C0 1.50673 0.884173 0.57711 2.00196 0.504558L2.14286 0.5H9.85714Z" fill="#DD9064"/>
</svg>
