<svg width="23" height="20" viewBox="0 0 23 20" fill="none" xmlns="http://www.w3.org/2000/svg">
<path d="M20.6564 8.85372H4.64143L9.54315 2.96624C9.77236 2.69048 9.88263 2.33497 9.84971 1.9779C9.81678 1.62084 9.64337 1.29147 9.36761 1.06227C9.09185 0.833064 8.73633 0.722793 8.37926 0.755714C8.0222 0.788635 7.69284 0.962051 7.46363 1.23781L0.711945 9.33984C0.66652 9.40428 0.6259 9.47198 0.590414 9.54239C0.590414 9.60991 0.590415 9.65042 0.495891 9.71793C0.434685 9.87276 0.402638 10.0376 0.401367 10.2041C0.402638 10.3705 0.434685 10.5353 0.495891 10.6902C0.495891 10.7577 0.495891 10.7982 0.590414 10.8657C0.6259 10.9361 0.66652 11.0038 0.711945 11.0683L7.46363 19.1703C7.59059 19.3227 7.74958 19.4453 7.92929 19.5293C8.109 19.6133 8.30501 19.6567 8.50339 19.6564C8.8189 19.657 9.12467 19.5471 9.36761 19.3458C9.50434 19.2325 9.61737 19.0933 9.70021 18.9361C9.78306 18.779 9.8341 18.6071 9.8504 18.4303C9.86671 18.2534 9.84796 18.0751 9.79524 17.9055C9.74252 17.7359 9.65685 17.5783 9.54315 17.4419L4.64143 11.5544H20.6564C21.0146 11.5544 21.358 11.4121 21.6113 11.1589C21.8645 10.9056 22.0068 10.5622 22.0068 10.2041C22.0068 9.84592 21.8645 9.50246 21.6113 9.24922C21.358 8.99598 21.0146 8.85372 20.6564 8.85372Z" fill="#4A4A4A"/>
</svg>
