<svg width="18" height="17" viewBox="0 0 18 17" fill="none" xmlns="http://www.w3.org/2000/svg">
<path d="M16.4805 3.03896H1.51948C0.677922 3.03896 0 2.36104 0 1.51948C0 0.677922 0.677922 0 1.51948 0H16.4805C17.3221 0 18 0.677922 18 1.51948C18 2.36104 17.3221 3.03896 16.4805 3.03896ZM18 8.2987C18 7.45714 17.3221 6.77922 16.4805 6.77922H1.51948C0.677922 6.77922 0 7.45714 0 8.2987C0 9.14026 0.677922 9.81818 1.51948 9.81818H16.4805C17.3221 9.81818 18 9.14026 18 8.2987ZM18 15.0779C18 14.2364 17.3221 13.5584 16.4805 13.5584H1.51948C0.677922 13.5584 0 14.2364 0 15.0779C0 15.9195 0.677922 16.5974 1.51948 16.5974H16.4805C17.3221 16.5974 18 15.9195 18 15.0779Z" fill="white"/>
</svg>
